<svg width="67" height="101" viewBox="0 0 67 101" fill="none" xmlns="http://www.w3.org/2000/svg">
<g clip-path="url(#clip0_28_392)">
<path d="M63.8506 37.8028C30.2475 37.8028 4.86768 64.5361 4.86768 98.4028" stroke="#389D74" stroke-width="7" stroke-miterlimit="10"/>
<path d="M21.4746 98.4028C21.6865 74.5034 40.1144 55.2383 63.8507 55.1171" stroke="#389D74" stroke-width="7" stroke-miterlimit="10"/>
<path d="M63.8506 70.7C48.4864 70.8154 37.0506 82.9181 36.936 98.4028" stroke="#389D74" stroke-width="7" stroke-miterlimit="10"/>
<path d="M63.7303 39.9036V94.4898C63.7303 96.4406 62.1555 98.0277 60.2143 98.0277H6.8605C4.75887 98.0277 3.05811 96.3136 3.05811 94.2012V38.7551C3.05811 37.5489 3.49332 36.3831 4.2893 35.4712L32.1487 3.50325C32.8702 2.67793 34.153 2.67793 34.8688 3.50902L61.7604 34.6055C63.0317 36.0714 63.7303 37.9529 63.7303 39.9036Z" stroke="#389D74" stroke-width="7" stroke-miterlimit="10"/>
<path d="M49.5456 98.0277C49.5399 98.1489 49.5342 98.2759 49.5342 98.4028" stroke="#389D74" stroke-width="7" stroke-miterlimit="10"/>
<path d="M63.8507 83.9743C63.8106 83.9743 63.7706 83.9743 63.7305 83.98" stroke="#389D74" stroke-width="7" stroke-miterlimit="10"/>
</g>
<defs>
<clipPath id="clip0_28_392">
<rect width="67" height="101" fill="white"/>
</clipPath>
</defs>
</svg>
